<?xml version="1.0" encoding="UTF-8"?>
<!DOCTYPE svg PUBLIC "-//W3C//DTD SVG 1.1//EN" "http://www.w3.org/Graphics/SVG/1.1/DTD/svg11.dtd">
<!-- Creator: CorelDRAW (Versión de evaluación) -->
<svg xmlns="http://www.w3.org/2000/svg" xml:space="preserve" width="438.612mm" height="210.16mm" version="1.1" style="shape-rendering:geometricPrecision; text-rendering:geometricPrecision; image-rendering:optimizeQuality; fill-rule:evenodd; clip-rule:evenodd"
viewBox="0 0 1641.53 786.53"
 xmlns:xlink="http://www.w3.org/1999/xlink"
 xmlns:xodm="http://www.corel.com/coreldraw/odm/2003">
 <defs>
  <style type="text/css">
   <![CDATA[
    .fil2 {fill:#ADADAD}
    .fil0 {fill:#00000055;fill-rule:nonzero}
    .fil1 {fill:white;fill-rule:nonzero}
   ]]>
  </style>
 </defs>
 <g id="Capa_x0020_1">
  <metadata id="CorelCorpID_0Corel-Layer"/>
  <path class="fil0" d="M63.94 126.83c830.14,200.08 553.34,-195.5 1577.58,2.15 0,159.89 -7.61,433.56 -7.61,593.45 -853.44,-203.39 -735.14,218.75 -1563.45,-1.49 0,-159.89 -6.53,-434.22 -6.53,-594.12z"/>
  <path class="fil1" d="M-0 54.89c830.14,200.08 553.34,-195.5 1577.58,2.15 0,159.89 -7.61,433.56 -7.61,593.45 -853.44,-203.39 -735.14,218.75 -1563.45,-1.49 0,-159.89 -6.53,-434.22 -6.53,-594.12z"/>
  <path class="fil2" d="M1375.98 483.79c-4.57,0.45 -13.26,1.47 -19.63,-2.31 -6.37,-3.78 -10.41,-12.36 -10.54,-20.38 -0.14,-8.02 3.64,-15.48 11.26,-19.48 7.62,-4 19.09,-4.54 27.1,-0.39 8.01,4.15 12.56,12.98 14.29,23.98 1.73,11 0.65,24.15 -6.4,35.59 -7.04,11.44 -20.04,21.15 -26.69,25.96 -6.65,4.81 -6.94,4.72 -8.13,3.07 -1.18,-1.65 -3.26,-4.86 -4.25,-6.62 -0.99,-1.77 -0.91,-2.1 2.92,-4.84 3.83,-2.74 11.4,-7.9 16.28,-14.1 4.88,-6.2 7.07,-13.44 7.94,-17.12 0.87,-3.68 0.42,-3.79 -4.15,-3.34z"/>
  <path class="fil2" d="M1306.3 483.79c-4.57,0.45 -13.26,1.47 -19.63,-2.31 -6.37,-3.78 -10.41,-12.36 -10.54,-20.38 -0.14,-8.02 3.64,-15.48 11.26,-19.48 7.62,-4 19.09,-4.54 27.1,-0.39 8.01,4.15 12.56,12.98 14.29,23.98 1.73,11 0.65,24.15 -6.4,35.59 -7.04,11.44 -20.04,21.15 -26.69,25.96 -6.65,4.81 -6.94,4.72 -8.13,3.07 -1.18,-1.65 -3.26,-4.86 -4.25,-6.62 -0.99,-1.77 -0.91,-2.1 2.92,-4.84 3.83,-2.74 11.4,-7.9 16.28,-14.1 4.88,-6.2 7.07,-13.44 7.94,-17.12 0.87,-3.68 0.42,-3.79 -4.15,-3.34z"/>
 </g>
</svg>


